<svg width="116" height="100" viewBox="0 0 116 100" fill="none" xmlns="http://www.w3.org/2000/svg">
<path d="M101.75 50C105.202 50 108.04 52.8091 107.61 56.2339C106.462 65.3663 102.809 74.0487 96.9986 81.2907C89.878 90.1653 79.9435 96.3459 68.8357 98.8118C57.7279 101.278 46.1114 99.8811 35.9045 94.853C27.5754 90.7499 20.5916 84.4287 15.6877 76.6397C13.8486 73.7187 15.2319 69.9724 18.3594 68.5118V68.5118C21.487 67.0513 25.1664 68.4425 27.1256 71.2843C30.7406 76.5282 35.6533 80.7948 41.4284 83.6397C49.0835 87.4108 57.796 88.4582 66.1268 86.6088C74.4576 84.7595 81.9085 80.124 87.249 73.468C91.2778 68.4468 93.9237 62.5022 94.9804 56.2213C95.5531 52.8173 98.2982 50 101.75 50V50Z" fill="#9C9C9C"/>
<path d="M14.25 50C10.7982 50 7.95971 47.1909 8.39006 43.7661C9.53565 34.649 13.1786 25.98 18.9728 18.7449C26.0756 9.87598 35.9872 3.69076 47.0752 1.2081C58.1632 -1.27455 69.7661 0.093427 79.9726 5.08671C88.2989 9.16011 95.2907 15.4479 100.215 23.206C102.065 26.1203 100.695 29.8716 97.5727 31.3436V31.3436C94.4505 32.8155 90.7661 31.4378 88.7965 28.6031C85.1689 23.3819 80.2517 19.139 74.4795 16.315C66.8246 12.5701 58.1224 11.5441 49.8064 13.4061C41.4904 15.2681 34.0567 19.907 28.7296 26.5587C24.7127 31.5745 22.0744 37.5091 21.0196 43.7787C20.4469 47.1827 17.7018 50 14.25 50V50Z" fill="#9C9C9C"/>
<path d="M102.547 37.9193C102.275 38.9992 101.173 39.6487 100.097 39.3638L85.5132 35.5054C83.7961 35.0511 83.479 32.7508 85.0092 31.849L103.281 21.08C104.811 20.1781 106.67 21.5697 106.236 23.292L102.547 37.9193Z" fill="#9C9C9C"/>
<path d="M11.8647 62.092C12.1353 61.0154 13.231 60.3652 14.3057 60.6435L28.9512 64.4358C30.6728 64.8815 30.9999 67.1843 29.4705 68.0919L11.1367 78.9716C9.60735 79.8792 7.74284 78.4888 8.17641 76.7641L11.8647 62.092Z" fill="#9C9C9C"/>
</svg>
