<svg width="100" height="85" viewBox="0 0 100 85" fill="none" xmlns="http://www.w3.org/2000/svg">
<path fill-rule="evenodd" clip-rule="evenodd" d="M0 7C0 3.13401 3.13401 0 7 0H93C96.866 0 100 3.13401 100 7V78C100 81.866 96.866 85 93 85H7C3.13401 85 0 81.866 0 78V7ZM52.439 62.8862H71.3415V80.1626H52.439V62.8862ZM23.7805 17.2764H4.87805V34.5528H23.7805V17.2764ZM76.2195 62.8862H95.1219V80.1626H76.2195V62.8862ZM47.561 62.8862H28.6585V80.1626H47.561V62.8862ZM4.87805 62.8862H23.7805V80.1626H4.87805V62.8862ZM95.1219 40.0813H76.2195V57.3577H95.1219V40.0813ZM52.439 40.0813H71.3415V57.3577H52.439V40.0813ZM47.561 40.0813H28.6585V57.3577H47.561V40.0813ZM4.87805 40.0813H23.7805V57.3577H4.87805V40.0813ZM95.1219 17.2764H76.2195V34.5528H95.1219V17.2764ZM52.439 17.2764H71.3415V34.5528H52.439V17.2764ZM47.561 17.2764H28.6585V34.5528H47.561V17.2764Z" fill="#9C9C9C"/>
</svg>
